<?xml version="1.0" encoding="utf-8"?>
<!-- Generator: Adobe Illustrator 23.0.1, SVG Export Plug-In . SVG Version: 6.00 Build 0)  -->
<svg version="1.1" id="Слой_1" xmlns="http://www.w3.org/2000/svg" xmlns:xlink="http://www.w3.org/1999/xlink" x="0px" y="0px"
	 viewBox="0 0 595.28 841.89" style="enable-background:new 0 0 595.28 841.89;" xml:space="preserve">
<style type="text/css">
	.st0{fill:#00525C;}
</style>
<g>
	<path class="st0" d="M218.56,358.55l-0.72,3.74c-1.72,0.13-3.23,0.2-4.52,0.2c-1.86,0-4.11-0.13-6.74-0.39
		c-4.49-0.44-7.34-0.66-8.53-0.66c-2.01,0-5.09,0.28-9.25,0.85c1.48-3.41,2.72-6.99,3.73-10.75c0.72-2.67,1.48-7.25,2.29-13.77
		c-5.58-0.04-14.24,0.07-25.98,0.33c-12.17,16.96-21.08,27.61-26.75,31.96c-5.66,4.35-11.05,6.52-16.17,6.52
		c-2.68,0-4.67-0.47-5.99-1.41c-1.31-0.94-1.97-2.15-1.97-3.64c0-1.14,0.38-2.08,1.15-2.82c0.76-0.74,1.72-1.11,2.87-1.11
		c0.67,0,1.58,0.11,2.72,0.33c2.87,0.61,4.78,0.92,5.73,0.92c3.2,0,6.74-1.66,10.61-4.98c6.3-5.42,15.62-16.78,27.94-34.09
		c13.94-19.58,25.24-33.83,33.88-42.75c-11.79,0.96-19.14,1.88-22.05,2.75c-4.01,1.18-7.02,2.93-9.02,5.25
		c-2,2.32-3.01,4.68-3.01,7.08c0,0.79,0.31,1.9,0.93,3.34c0.67,1.62,1,2.8,1,3.54c0,0.96-0.41,1.81-1.22,2.56
		c-0.81,0.74-1.79,1.11-2.94,1.11c-1.63,0-2.93-0.56-3.91-1.67c-0.98-1.11-1.47-2.79-1.47-5.02c0-3.15,0.9-6.2,2.69-9.15
		c1.79-2.95,4.36-5.42,7.71-7.41c3.34-1.99,7.53-3.51,12.54-4.56c2.58-0.57,7.12-1.07,13.62-1.51c5.65-0.44,9.19-0.85,10.62-1.25
		c2.25-0.57,4.4-1.68,6.46-3.34c-1.44,5.38-2.46,10.08-3.09,14.1l-5.6,37.9l-3.23,27.14c3.54,0.83,6.71,1.25,9.53,1.25
		C214.33,359.14,216.36,358.94,218.56,358.55z M195.47,332.91c2.29-17.75,4.59-30.71,6.88-38.88c-6.05,7.35-9.8,11.99-11.23,13.91
		l-18.42,24.96c3.96,0.13,9.62,0.2,16.97,0.2C191.49,333.11,193.42,333.04,195.47,332.91z"/>
	<path class="st0" d="M290.76,299.96h-3.8c0.76-3.58,1.15-5.97,1.15-7.15c0-1.79-0.76-2.95-2.29-3.48s-5.43-0.79-11.69-0.79h-14.35
		c-2.39,9.35-5.94,22.13-10.67,38.32c-4.73,16.19-8.05,26.39-9.96,30.58c3.63,0.57,7.05,0.85,10.25,0.85c2.1,0,4.06-0.15,5.88-0.46
		l-1.22,3.74c-1.34,0.17-2.65,0.26-3.94,0.26c-1.05,0-4.35-0.15-9.89-0.46c-3.25-0.22-6.05-0.33-8.39-0.33
		c-4.78,0-8.88,0.43-14,1.22l0.09-3.64c4.4-0.87,7.35-1.86,8.85-2.95c1.5-1.09,3-3.48,4.48-7.15c1.48-3.67,4.04-11.93,7.67-24.78
		l9.75-35.21c-9.2,0.52-16.2,3.4-20.99,8.62c-4.79,5.22-7.19,10.83-7.19,16.82c0,4.06,0.96,7.6,2.87,10.62
		c1.34,2.05,2.01,3.52,2.01,4.39c0,2.45-1.59,3.67-4.76,3.67c-2.02,0-3.66-1.14-4.91-3.41c-1.25-2.27-1.88-5.53-1.88-9.77
		c0-8.87,3.26-16.96,9.79-24.26c6.52-7.3,16.59-10.95,30.21-10.95H278c6.26,0,11.97-0.63,17.13-1.9
		C292.55,291.96,291.1,297.82,290.76,299.96z"/>
</g>
</svg>
