<?xml version="1.0" encoding="utf-8"?>
<!-- Generator: Adobe Illustrator 23.0.1, SVG Export Plug-In . SVG Version: 6.00 Build 0)  -->
<svg version="1.1" id="Layer_1" xmlns="http://www.w3.org/2000/svg" xmlns:xlink="http://www.w3.org/1999/xlink" x="0px" y="0px"
	 viewBox="0 0 30 30" style="enable-background:new 0 0 30 30;" xml:space="preserve">
<style type="text/css">
	.st0{fill:#FFFFFF;}
	.st1{fill:#CFD8DC;}
	.st2{fill:#40C351;}
	.st3{fill-rule:evenodd;clip-rule:evenodd;fill:#FFFFFF;}
</style>
<path class="st0" d="M0.9,29.3l2-7.3c-1.2-2.1-1.9-4.5-1.9-7C1,7.2,7.3,0.9,15.1,0.9c3.8,0,7.3,1.5,9.9,4.1c2.7,2.7,4.1,6.2,4.1,9.9
	c0,7.7-6.3,14.1-14.1,14.1c0,0,0,0,0,0h0c-2.4,0-4.7-0.6-6.7-1.7L0.9,29.3z"/>
<path class="st0" d="M0.9,29.6c-0.1,0-0.2,0-0.3-0.1c-0.1-0.1-0.1-0.2-0.1-0.4l2-7.1c-1.2-2.2-1.9-4.6-1.8-7.1
	c0-8,6.5-14.4,14.4-14.4c3.9,0,7.5,1.5,10.2,4.2c2.7,2.7,4.2,6.4,4.2,10.2c0,8-6.5,14.4-14.4,14.4c-2.4,0-4.7-0.6-6.8-1.7L0.9,29.6
	C1,29.6,0.9,29.6,0.9,29.6z"/>
<path class="st1" d="M15.1,0.9c3.8,0,7.3,1.5,9.9,4.1c2.7,2.7,4.1,6.2,4.1,9.9c0,7.7-6.3,14.1-14.1,14.1h0c-2.4,0-4.7-0.6-6.7-1.7
	l-7.5,2l2-7.3c-1.2-2.1-1.9-4.5-1.9-7C1,7.2,7.3,0.9,15.1,0.9 M15.1,29L15.1,29L15.1,29 M15.1,29L15.1,29L15.1,29 M15.1,0.2
	L15.1,0.2C6.9,0.2,0.3,6.8,0.3,14.9c0,2.5,0.6,5,1.8,7.1l-1.9,7c-0.1,0.3,0,0.5,0.2,0.7C0.5,29.9,0.7,30,0.9,30C1,30,1,30,1.1,30
	l7.2-1.9c2.1,1.1,4.4,1.7,6.8,1.7c8.2,0,14.8-6.6,14.8-14.8c0-4-1.5-7.7-4.3-10.5C22.8,1.7,19,0.2,15.1,0.2L15.1,0.2z"/>
<path class="st2" d="M23.4,6.7c-2.2-2.2-5.1-3.4-8.3-3.4C8.6,3.3,3.4,8.5,3.4,14.9c0,2.2,0.6,4.4,1.8,6.2l0.3,0.4l-1.2,4.3l4.4-1.2
	L9.1,25c1.8,1.1,3.9,1.6,5.9,1.6h0c6.4,0,11.7-5.2,11.7-11.7C26.8,11.8,25.6,8.9,23.4,6.7z"/>
<path class="st3" d="M11.6,9.1c-0.3-0.6-0.5-0.6-0.8-0.6c-0.2,0-0.4,0-0.7,0c-0.2,0-0.6,0.1-0.9,0.4c-0.3,0.4-1.2,1.2-1.2,2.9
	s1.3,3.4,1.4,3.6c0.2,0.2,2.4,3.9,6,5.3c3,1.2,3.6,0.9,4.2,0.9c0.6-0.1,2.1-0.8,2.4-1.7s0.3-1.5,0.2-1.7c-0.1-0.1-0.3-0.2-0.7-0.4
	s-2.1-1-2.4-1.1s-0.6-0.2-0.8,0.2c-0.2,0.4-0.9,1.1-1.1,1.4c-0.2,0.2-0.4,0.3-0.8,0.1c-0.4-0.2-1.5-0.5-2.8-1.7
	c-1-0.9-1.7-2.1-2-2.4c-0.2-0.4,0-0.5,0.2-0.7c0.2-0.2,0.4-0.4,0.5-0.6c0.2-0.2,0.2-0.4,0.4-0.6c0.1-0.2,0.1-0.4,0-0.6
	C12.6,11.5,11.9,9.8,11.6,9.1z"/>
</svg>
