<?xml version="1.0" encoding="utf-8"?>
<!-- Generator: Adobe Illustrator 23.0.1, SVG Export Plug-In . SVG Version: 6.00 Build 0)  -->
<svg version="1.1"
	 id="Layer_1" text-rendering="geometricPrecision" image-rendering="optimizeQuality" shape-rendering="geometricPrecision"
	 xmlns="http://www.w3.org/2000/svg" xmlns:xlink="http://www.w3.org/1999/xlink" x="0px" y="0px" viewBox="0 0 1292.7 1354.2"
	 style="enable-background:new 0 0 1292.7 1354.2;" xml:space="preserve">
<style type="text/css">
	.st0{fill:#2AC64B;}
	.st1{fill:#008A5A;}
	.st2{fill:#009550;}
	.st3{fill:#00983E;}
	.st4{fill:#009A37;}
	.st5{fill:#00863F;}
	.st6{fill:#06CBF6;}
	.st7{fill:url(#SVGID_1_);}
	.st8{fill:#666565;}
	.st9{fill:#1E120D;}
	.st10{fill-rule:evenodd;clip-rule:evenodd;fill:url(#SVGID_2_);}
	.st11{fill-rule:evenodd;clip-rule:evenodd;fill:url(#SVGID_3_);}
	.st12{fill-rule:evenodd;clip-rule:evenodd;fill:url(#SVGID_4_);}
	.st13{fill-rule:evenodd;clip-rule:evenodd;fill:#97CC1A;}
	.st14{fill-rule:evenodd;clip-rule:evenodd;fill:url(#SVGID_5_);}
	.st15{fill-rule:evenodd;clip-rule:evenodd;fill:url(#SVGID_6_);}
	.st16{fill-rule:evenodd;clip-rule:evenodd;fill:url(#SVGID_7_);}
	.st17{fill-rule:evenodd;clip-rule:evenodd;fill:url(#SVGID_8_);}
	.st18{fill-rule:evenodd;clip-rule:evenodd;fill:url(#SVGID_9_);}
	.st19{fill-rule:evenodd;clip-rule:evenodd;fill:url(#SVGID_10_);}
</style>
<g>
	<path class="st0" d="M299.9,359.9c-13-5.9-24.3-10.5-33.5-14c-1.9-14.5-3.3-29-4.2-43.5c-0.7-12-0.3-23.8,1.2-35.4
		c7.8,1.3,18.9,3.2,32.7,5.9c-1.4,16.5-1.5,33.8,0,52.1C297,336.7,298.3,348.3,299.9,359.9z M428.7,435.9
		c-32.9-24.2-63.9-42.9-90.7-57.3c-5.4-33.5-7.8-66.7-5.7-98.2c24.9,5.5,54.2,12.6,86.5,21.6C416.6,344.2,420.6,389.6,428.7,435.9
		L428.7,435.9z M766.9,453.5c-0.3,3.7-0.7,7.3-1.1,11c-45,23.5-89.8,55.2-130,97.9c-13,13.8-24.9,27.7-35.7,41.5
		c-12.2-15.4-25.2-31-39-46.7c-6.2-7-12.4-13.8-18.6-20.4c-10.3-69.3-16.9-137.6-18.1-201.7C604.4,363.5,690.8,402.1,766.9,453.5
		L766.9,453.5z"/>
	<path class="st1" d="M309.7,205.5c-6.7,20.4-11.6,42.9-13.7,67.3c-13.8-2.7-24.9-4.6-32.7-5.9c0.9-7.3,2.2-14.5,3.8-21.7
		C277,234.7,291.2,220.8,309.7,205.5z"/>
	<path class="st2" d="M466.5,117.2c-23.7,43.4-42.7,102-47.5,180.1c-0.1,1.5-0.2,3.1-0.2,4.6c-32.3-9-61.7-16.1-86.5-21.5
		c0-1.1,0.1-2.1,0.2-3.1c3.1-41,15.2-78.5,33.5-111.9C394.1,147.9,427.6,131,466.5,117.2z"/>
	<path class="st3" d="M766.9,453.5c-76.1-51.4-162.5-90-242.6-118.4c-1.5-76.3,4.4-146.5,20.2-204.6c0.4-1.6,0.9-3.2,1.3-4.7
		c63.5,37.5,146.3,79.4,224.8,97.8C777.5,292.8,775.4,371.5,766.9,453.5L766.9,453.5z"/>
	<path class="st4" d="M1036.6,302.4c-1.9,32.2-6.5,64.1-13.7,96c-9.1,0.3-19.5,0.9-31.1,1.9c5.1-24.6,8.8-49.7,10.9-75.4
		c6.9-86.2-21-151.9-53.2-197.8c9.5,2.7,18.4,5.3,26.8,7.9C1012.5,181,1040.4,239.9,1036.6,302.4z M956.1,404.5
		c-25.2,3.6-53.7,9.3-83.8,17.8c6.9-43.3,9.9-85.6,7.5-125c-5.5-90-29.8-153.9-58.5-198.8c26.9,4.4,52.5,9.7,76.1,15.2
		c37.6,44.4,64.2,99.8,69,163.6C969.4,317.9,965,361.2,956.1,404.5z"/>
	<path class="st5" d="M770.6,223.5c-78.6-18.4-161.3-60.2-224.8-97.8c3.3-11.6,7.1-22.2,11.2-31.8c11.6-2,23.6-3.6,35.9-4.9
		c49.6-5.1,99.2-4.6,146.4-0.7c5.6,12.3,10.7,26.3,15,42.1C762,158.8,767.4,190.1,770.6,223.5z"/>
	<path class="st6" d="M431.4,46.5c-2.6,1.6-87,53.6-121.7,159c-18.5,15.2-32.7,29.2-42.5,39.8C290.1,145.8,381.7,64.5,431.4,46.5z
		 M484.9,87.5c-6.3,9-12.5,18.9-18.4,29.7c-38.8,13.7-72.3,30.7-100.6,48.2c21.6-39.7,52-73.5,86.3-100.3
		C460.3,70.9,471.4,78.6,484.9,87.5L484.9,87.5z"/>
	
		<linearGradient id="SVGID_1_" gradientUnits="userSpaceOnUse" x1="-44721.5859" y1="25303.1523" x2="-42864.4648" y2="25246.873" gradientTransform="matrix(0.253 0 0 -0.253 11790.1182 6458.1196)">
		<stop  offset="0" style="stop-color:#0288F7"/>
		<stop  offset="1" style="stop-color:#2EE2BD"/>
	</linearGradient>
	<path class="st7" d="M976.3,135.1c-8.4-2.6-17.3-5.2-26.8-7.9c-38.1-54.2-82.3-80.7-82.3-80.7C896.6,57,940.5,89.7,976.3,135.1z
		 M897.4,113.7c-23.6-5.5-49.1-10.8-76.1-15.2C772.9,22.6,712.2,1,709.3,0C774.4,13.1,846.1,53.2,897.4,113.7z M739.3,88.4
		c-47.2-3.9-96.7-4.4-146.4,0.7c-12.3,1.2-24.3,2.9-36,4.9C591.9,11.8,648.6,0,648.6,0h1.6C650.2,0,704.3,11.2,739.3,88.4z M589.5,0
		c-2.8,1-57.7,20.5-104.7,87.5c-13.4-8.9-24.6-16.6-32.7-22.4C495,31.7,543.9,9.2,589.5,0L589.5,0z"/>
	<path class="st8" d="M649.4,1066.4h58.3l21.6-94.1H569.6l21.6,94.1H649.4z"/>
	<path class="st9" d="M1256.1,1173.2h3.6c1.7,0,2.9-0.3,3.6-0.8c0.6-0.5,0.9-1.2,0.9-2.1c0-0.5-0.1-1-0.5-1.5
		c-0.3-0.4-0.7-0.8-1.3-1c-0.5-0.2-1.5-0.3-3-0.3h-3.4L1256.1,1173.2z M1253.1,1183.6v-18.5h6.4c2.2,0,3.7,0.2,4.7,0.5
		c1,0.3,1.8,0.9,2.3,1.8c0.6,0.9,0.9,1.8,0.9,2.7c0,1.4-0.5,2.5-1.4,3.5c-1,1-2.2,1.6-3.8,1.7c0.7,0.3,1.2,0.6,1.6,1
		c0.7,0.7,1.6,1.9,2.7,3.7l2.3,3.6h-3.6l-1.6-2.9c-1.3-2.3-2.3-3.7-3.1-4.3c-0.6-0.4-1.4-0.6-2.4-0.6h-1.8v7.9L1253.1,1183.6z
		 M1260.6,1159.8c-2.4,0-4.8,0.6-7.1,1.9c-2.3,1.2-4.1,3-5.4,5.3c-1.3,2.3-1.9,4.7-1.9,7.2c0,2.5,0.6,4.9,1.9,7.1
		c1.3,2.3,3,4,5.3,5.3c2.3,1.3,4.7,1.9,7.1,1.9c2.5,0,4.9-0.6,7.1-1.9c2.3-1.3,4.1-3,5.3-5.3c1.3-2.3,1.9-4.6,1.9-7.1
		c0-2.5-0.6-4.9-1.9-7.2c-1.3-2.3-3.1-4.1-5.4-5.3C1265.4,1160.4,1263,1159.8,1260.6,1159.8L1260.6,1159.8z M1260.6,1156.9
		c2.9,0,5.7,0.7,8.5,2.2c2.7,1.5,4.9,3.6,6.4,6.4c1.5,2.8,2.3,5.6,2.3,8.6c0,3-0.8,5.8-2.3,8.6c-1.5,2.7-3.6,4.9-6.4,6.4
		c-2.7,1.5-5.6,2.3-8.6,2.3c-3,0-5.8-0.8-8.6-2.3c-2.7-1.5-4.9-3.6-6.4-6.4c-1.5-2.7-2.3-5.6-2.3-8.6c0-3,0.8-5.9,2.3-8.6
		c1.5-2.8,3.7-4.9,6.4-6.4C1254.9,1157.7,1257.7,1156.9,1260.6,1156.9L1260.6,1156.9z M1059.5,1331.9l37,1.5l30.1-136.9l31.3,136.9
		h37.6l33.5-174.5h-28.6l-22.1,143.6h-5.2l-32.3-143.6h-26.2l-31.8,143.6h-4.1l-23.6-143.6h-30.9L1059.5,1331.9z M986.6,1262.8
		l-22.1-81h-6.1l-21.6,81H986.6z M992.7,1285h-61.8l-12.9,48.4h-30.6l56.8-174.5h35.5l57.7,174.5h-31.5L992.7,1285z M778.7,1241h37
		c15.9,0,28.8-12.9,28.8-28.8v-1.5c0-15.9-12.9-28.8-28.8-28.8h-37V1241z M844.5,1333.3l-40.1-70.5h-25.7v70.5h-30.9v-174.5h73.3
		c28.2,0,51.1,22.9,51.1,51.1v1.7c0,23-15.2,42.5-36.1,48.9l41.4,72.7H844.5z M696.2,1238.8v14.6c0,31.5-25.5,56.9-56.9,56.9h-17.6
		v-128.5h17.6C670.8,1181.8,696.2,1207.3,696.2,1238.8z M646.9,1158.8h-54v174.5h54c42.7,0,77.3-34.6,77.3-77.3v-19.8
		C724.2,1193.5,689.6,1158.8,646.9,1158.8z M565.7,1312.1h-4.1c-4,0-7.3-3.3-7.3-7.3v-145.7h-30.6v144.8c0,45.7,44.9,30.6,44.9,30.6
		L565.7,1312.1z M475.7,1255.6h-61.5c0,0,5.5-35,30.7-35S475.7,1243,475.7,1255.6z M387.2,1267.9c0,46.8,29.7,63.1,54.5,68
		c24.8,5,54.2-12.8,54.2-12.8s-5.8-10.5-11.4-17.8c-3.5,2.3-24.8,17.2-46.6,6.7c-21.8-10.5-24.2-37-24.2-37h85.9
		c5.5-58.5-25.6-76-52.4-76C421.8,1199,387.2,1221.2,387.2,1267.9L387.2,1267.9z M378.7,1225.5c0,0,2.3-9.6,5.5-24.2
		c-28.8-13.7-55.6,27.7-55.6,27.7v-27.7h-24.5v131.4h28v-80.1C353.1,1215.9,378.7,1225.5,378.7,1225.5L378.7,1225.5z M257.8,1267.5
		c0,25.3-15.3,45.9-34.1,45.9s-34.1-20.5-34.1-45.9s15.3-45.9,34.1-45.9S257.8,1242.2,257.8,1267.5z M222.8,1199
		c-34.3,0-62,30.6-62,68.5s27.8,68.5,62,68.5c34.3,0,62-30.6,62-68.5S257.1,1199,222.8,1199z M150.2,1311.6
		c-14.5,16.1-34.3,26.1-56.2,26.1c-44.5,0-80.5-41.1-80.5-91.8c0-50.7,36.1-91.8,80.5-91.8c19.8,0,37.8,8.1,51.9,21.6l-16.1,20.5
		c-9.2-9.9-21-15.9-34-15.9c-28.9,0-52.3,29.3-52.3,65.5c0,36.2,23.4,65.5,52.3,65.5c14.1,0,26.9-7.1,36.3-18.5L150.2,1311.6z"/>
</g>
<linearGradient id="SVGID_2_" gradientUnits="userSpaceOnUse" x1="-44579.4688" y1="22565.75" x2="-45036.2891" y2="23695.4199" gradientTransform="matrix(0.253 0 0 -0.253 11790.1182 6458.1196)">
	<stop  offset="0" style="stop-color:#CB1918"/>
	<stop  offset="0.388" style="stop-color:#A2183D"/>
	<stop  offset="0.749" style="stop-color:#902869"/>
	<stop  offset="1" style="stop-color:#73358A"/>
</linearGradient>
<path class="st10" d="M429.3,645.2c11.2,23.2,21.9,43.9,31.1,61.1c15.8,29.6,30.8,54.7,46.3,77.6c4.5-15.7,10.1-32.2,17-49.3
	c-12-27.6-24.1-57.2-35.5-88c-24.9-67-47.1-139.9-59.5-210.7c-32.9-24.2-63.9-42.9-90.8-57.2C353.3,473.9,393.8,572.1,429.3,645.2
	L429.3,645.2z"/>
<linearGradient id="SVGID_3_" gradientUnits="userSpaceOnUse" x1="-44810.293" y1="22472.4004" x2="-45267.1211" y2="23602.0801" gradientTransform="matrix(0.253 0 0 -0.253 11790.1182 6458.1196)">
	<stop  offset="0" style="stop-color:#CB1918"/>
	<stop  offset="0.388" style="stop-color:#A2183D"/>
	<stop  offset="0.749" style="stop-color:#902869"/>
	<stop  offset="1" style="stop-color:#73358A"/>
</linearGradient>
<path class="st11" d="M376.6,644c6.3,11.1,12.9,22.2,19.8,33.5c32,52.5,69,100.9,101.9,140.3c1-4.8,2.1-9.7,3.4-14.7
	c-13.3-18.3-26.3-36.9-37.5-54.1c-16-24.7-39.2-60.4-63.4-104.4c-41.4-75.5-85.6-175.2-100.9-284.7c-13-5.9-24.3-10.5-33.5-14
	C279.6,444.1,317.2,540.6,376.6,644L376.6,644z"/>
<linearGradient id="SVGID_4_" gradientUnits="userSpaceOnUse" x1="-44176.0703" y1="22728.875" x2="-44632.9023" y2="23858.5566" gradientTransform="matrix(0.253 0 0 -0.253 11790.1182 6458.1196)">
	<stop  offset="0" style="stop-color:#CB1918"/>
	<stop  offset="0.388" style="stop-color:#A2183D"/>
	<stop  offset="0.749" style="stop-color:#902869"/>
	<stop  offset="1" style="stop-color:#73358A"/>
</linearGradient>
<path class="st12" d="M548.2,573.4c4.2,24.8,9,50,14.3,74.9c0.5,2.4,1,4.7,1.5,7.1c10.5-17,22.4-34.2,36-51.5
	c-12.6-15.9-25.6-31.5-39-46.7c-6.2-7-12.4-13.8-18.6-20.4C544.2,549,546.1,561.1,548.2,573.4L548.2,573.4z"/>
<path class="st13" d="M991.8,400.3C977,472.3,950.9,539,923.1,596c5.6,5.6,11.1,11.3,16.4,16.8c39.6-73.6,67.7-143.9,83.4-214.5
	C1013.9,398.8,1003.4,399.3,991.8,400.3z M872.3,422.4c-5.4,34.4-13.3,69.4-22.7,104.1c16.4,14.8,34.3,31.3,51.8,48.3
	c22-52.5,42.6-111.4,54.7-170.2C930.9,408.1,902.4,413.8,872.3,422.4L872.3,422.4z"/>
<linearGradient id="SVGID_5_" gradientUnits="userSpaceOnUse" x1="-43237.2578" y1="23368.3105" x2="-43900.1875" y2="22644.1895" gradientTransform="matrix(0.253 0 0 -0.253 11790.1182 6458.1196)">
	<stop  offset="0" style="stop-color:#ADD816"/>
	<stop  offset="1" style="stop-color:#DBD704"/>
</linearGradient>
<path class="st14" d="M635.8,562.4c-13,13.8-24.9,27.7-35.7,41.5c47.3,59.8,82.5,116.7,108,164.2c9.3-35.8,18.9-75.4,27.5-115.9
	c5.6-26.2,10.7-52.7,15.1-78.8c6.2-36.5,11.3-72.9,15.2-108.8C720.8,488.1,676,519.7,635.8,562.4z M923.1,596
	c-1.1,2.2-2.1,4.4-3.2,6.5c-31.4,63.4-64.4,114.3-85.3,146.4c-24.1,37.1-56.5,80.5-82.2,113.8c0.9,2.5,1.8,4.7,2.7,6.9
	c39.8-43.4,99.2-113.3,147.3-192.2c12.1-19.8,23.4-39.3,33.9-58.6c1.1-2,2.2-4,3.3-6C934.2,607.3,928.7,601.7,923.1,596L923.1,596z
	 M849.6,526.4l-1.2,4.5c-30.5,110.2-77,216.9-113.7,290.5c4,8.7,7.6,16.9,10.8,24.3c34-40.4,61.9-81.3,93-139.4
	c17.1-32,39.2-75.5,60.2-125.1l2.8-6.6C883.8,557.7,865.9,541.2,849.6,526.4L849.6,526.4z"/>
<linearGradient id="SVGID_6_" gradientUnits="userSpaceOnUse" x1="-43738.5742" y1="21977.0156" x2="-44302.8984" y2="22928.6758" gradientTransform="matrix(0.253 0 0 -0.253 11790.1182 6458.1196)">
	<stop  offset="0" style="stop-color:#E1282B"/>
	<stop  offset="0.388" style="stop-color:#E3402A"/>
	<stop  offset="0.702" style="stop-color:#E76226"/>
	<stop  offset="1" style="stop-color:#F19A0A"/>
</linearGradient>
<path class="st15" d="M680.1,917.3c24.8-25.7,46.1-48.5,65.4-71.5c-3.2-7.5-6.8-15.6-10.8-24.3C708.5,873.5,687.3,909,680.1,917.3z"
	/>
<linearGradient id="SVGID_7_" gradientUnits="userSpaceOnUse" x1="-43702.5156" y1="21998.3984" x2="-44266.832" y2="22950.0586" gradientTransform="matrix(0.253 0 0 -0.253 11790.1182 6458.1196)">
	<stop  offset="0" style="stop-color:#E1282B"/>
	<stop  offset="0.388" style="stop-color:#E3402A"/>
	<stop  offset="0.702" style="stop-color:#E76226"/>
	<stop  offset="1" style="stop-color:#F19A0A"/>
</linearGradient>
<path class="st16" d="M710.5,915.8c1.3-1.3,18.9-18.2,44.6-46.1c-0.9-2.2-1.7-4.5-2.7-6.9C729.4,892.5,711.9,914.1,710.5,915.8z"/>
<linearGradient id="SVGID_8_" gradientUnits="userSpaceOnUse" x1="-43798.457" y1="21941.5059" x2="-44362.7773" y2="22893.166" gradientTransform="matrix(0.253 0 0 -0.253 11790.1182 6458.1196)">
	<stop  offset="0" style="stop-color:#E1282B"/>
	<stop  offset="0.388" style="stop-color:#E3402A"/>
	<stop  offset="0.702" style="stop-color:#E76226"/>
	<stop  offset="1" style="stop-color:#F19A0A"/>
</linearGradient>
<path class="st17" d="M564,655.4c29.3,137.2,69.5,263,69.5,263h31.7c0,0,20.4-63.9,42.8-150.3c-25.5-47.6-60.7-104.4-108-164.2
	C586.5,621.1,574.5,638.4,564,655.4z"/>
<linearGradient id="SVGID_9_" gradientUnits="userSpaceOnUse" x1="-44109.5234" y1="21757.0508" x2="-44673.8438" y2="22708.7109" gradientTransform="matrix(0.253 0 0 -0.253 11790.1182 6458.1196)">
	<stop  offset="0" style="stop-color:#E1282B"/>
	<stop  offset="0.388" style="stop-color:#E3402A"/>
	<stop  offset="0.702" style="stop-color:#E76226"/>
	<stop  offset="1" style="stop-color:#F19A0A"/>
</linearGradient>
<path class="st18" d="M506.7,783.9c32,47.6,65.8,85.5,112.1,133.4c-10.8-12.3-52.5-84.8-95-182.7
	C516.7,751.7,511.1,768.3,506.7,783.9L506.7,783.9z"/>
<linearGradient id="SVGID_10_" gradientUnits="userSpaceOnUse" x1="-44213.8164" y1="21695.2012" x2="-44778.1367" y2="22646.8711" gradientTransform="matrix(0.253 0 0 -0.253 11790.1182 6458.1196)">
	<stop  offset="0" style="stop-color:#E1282B"/>
	<stop  offset="0.388" style="stop-color:#E3402A"/>
	<stop  offset="0.702" style="stop-color:#E76226"/>
	<stop  offset="1" style="stop-color:#F19A0A"/>
</linearGradient>
<path class="st19" d="M498.3,817.8c48.4,57.9,88,96,90,98c-2.1-2.6-45.8-56.3-86.7-112.7C500.4,808.1,499.2,813,498.3,817.8
	L498.3,817.8z"/>
</svg>
